:FULLY-SPECIFIED
:FORCE-ALL-JOINTS-BE-3DOF
:DEGREES
679
root 5.32279 16.4058 1.11845 18.9199 -29.4811 3.34177
lfemur -33.6999 26.3405 -10.6752
ltibia 94.2597 0 0
lfoot 7.37745 -5.11053 0
ltoes 8.22503 0 0
rfemur -37.3274 -13.82 26.9459
rtibia 53.8723 0 0
rfoot -18.3879 -6.26992 0
rtoes 4.23659 0 0
lowerback -0.359439 -6.42325 -0.613163
upperback -2.2548 -8.60959 0.155409
thorax -1.93585 -4.28841 0.579088
lowerneck -9.60806 -3.82288 0.572603
upperneck 1.41648 -5.28128 2.98709
head 2.16929 -2.55842 0.636867
lclavicle 2.82412e-15 9.52764e-16 0
lhumerus 5.63332 -63.4802 67.0967
lradius 87.7704 0 0
lwrist 28.5761 0 0
lhand -13.7602 -1.55232 0
lfingers 7.12502 0 0
lthumb 12.3586 28.0234 0
rclavicle 2.82412e-15 9.52764e-16 0
rhumerus -53.3952 -13.8098 -40.7466
rradius 69.8034 0 0
rwrist -16.0885 0 0
rhand -29.0517 -48.6981 0
rfingers 7.12502 0 0
rthumb -2.40132 -798.648 0
680
root 5.3136 16.5255 1.27907 18.7284 -31.2372 3.48705
lfemur -34.8917 25.7915 -8.19058
ltibia 97.0632 0 0
lfoot 7.78897 -5.17045 0
ltoes 9.86907 0 0
rfemur -35.1551 -12.9325 26.105
rtibia 50.6134 0 0
rfoot -16.7524 -5.62966 0
rtoes 4.24103 0 0
lowerback -0.161745 -6.33224 -0.704387
upperback -2.24532 -8.49979 -0.0424804
thorax -2.05222 -4.23258 0.446805
lowerneck -9.39444 -3.82713 0.558208
upperneck 1.55938 -5.29706 3.1395
head 2.18531 -2.56206 0.69154
lclavicle 4.41593e-17 2.72407e-15 0
lhumerus 7.77548 -61.2399 63.2297
lradius 87.6478 0 0
lwrist 28.6758 0 0
lhand -14.2829 -1.90572 0
lfingers 7.12502 0 0
lthumb 11.8543 27.693 0
rclavicle 4.41593e-17 2.72407e-15 0
rhumerus -52.8286 -13.6132 -38.8448
rradius 71.6326 0 0
rwrist -15.5926 0 0
rhand -29.3954 -48.358 0
rfingers 7.12502 0 0
rthumb -2.73326 -798.302 0
681
root 5.3057 16.6519 1.43874 18.4365 -32.8451 3.5697
lfemur -36.1081 25.1864 -5.59797
ltibia 99.8978 0 0
lfoot 8.13585 -5.19239 0
ltoes 11.5802 0 0
rfemur -32.8874 -11.9924 25.1984
rtibia 47.1805 0 0
rfoot -14.9752 -4.91996 0
rtoes 4.18136 0 0
lowerback 0.0552795 -6.22488 -0.812714
upperback -2.22674 -8.36909 -0.247062
thorax -2.17057 -4.16637 0.318247
lowerneck -9.16135 -3.85106 0.533816
upperneck 1.73464 -5.34076 3.30783
head 2.21 -2.57852 0.750596
lclavicle -2.80792e-15 4.57381e-15 0
lhumerus 9.96077 -58.8061 59.2033
lradius 87.4399 0 0
lwrist 28.7731 0 0
lhand -14.8427 -2.27826 0
lfingers 7.12502 0 0
lthumb 11.3142 27.3452 0
rclavicle -2.80792e-15 4.57381e-15 0
rhumerus -52.0604 -13.3439 -36.9158
rradius 73.692 0 0
rwrist -15.1365 0 0
rhand -29.7543 -47.9394 0
rfingers 7.12502 0 0
rthumb -3.07975 -797.877 0
682
root 5.299 16.784 1.59713 18.0606 -34.3222 3.59783
lfemur -37.3372 24.5336 -2.92871
ltibia 102.738 0 0
lfoot 8.424 -5.18025 0
ltoes 13.3398 0 0
rfemur -30.5519 -11.0126 24.2391
rtibia 43.6189 0 0
rfoot -13.082 -4.15753 0
rtoes 4.06793 0 0
lowerback 0.28776 -6.10342 -0.935117
upperback -2.20044 -8.22028 -0.45609
thorax -2.28999 -4.09117 0.193714
lowerneck -8.91302 -3.89186 0.500883
upperneck 1.93616 -5.40828 3.48863
head 2.24186 -2.60596 0.813009
lclavicle -5.68421e-15 6.47932e-15 0
lhumerus 12.1668 -56.218 55.0631
lradius 87.1561 0 0
lwrist 28.8685 0 0
lhand -15.4312 -2.66433 0
lfingers 7.12502 0 0
lthumb 10.7463 26.9852 0
rclavicle -5.68421e-15 6.47932e-15 0
rhumerus -51.1197 -13.0142 -34.9743
rradius 75.937 0 0
rwrist -14.7163 0 0
rhand -30.1243 -47.4556 0
rfingers 7.12502 0 0
rthumb -3.43713 -797.386 0
683
root 5.29342 16.9204 1.7539 17.617 -35.6857 3.57956
lfemur -38.5666 23.8415 -0.214163
ltibia 105.557 0 0
lfoot 8.65935 -5.13792 0
ltoes 15.1291 0 0
rfemur -28.1766 -10.0058 23.2402
rtibia 39.974 0 0
rfoot -11.0987 -3.35912 0
rtoes 3.91111 0 0
lowerback 0.531823 -5.97008 -1.06857
upperback -2.16782 -8.05614 -0.667318
thorax -2.40956 -4.00837 0.073504
lowerneck -8.65372 -3.94672 0.460864
upperneck 2.15784 -5.49554 3.67845
head 2.27935 -2.64253 0.877757
lclavicle -8.5368e-15 8.41792e-15 0
lhumerus 14.3713 -53.5146 50.8544
lradius 86.8054 0 0
lwrist 28.9621 0 0
lhand -16.0401 -3.05832 0
lfingers 7.12502 0 0
lthumb 10.159 26.6183 0
rclavicle -8.5368e-15 8.41792e-15 0
rhumerus -50.0356 -12.6366 -33.0351
rradius 78.3229 0 0
rwrist -14.328 0 0
rhand -30.5019 -46.9197 0
rfingers 7.12502 0 0
rthumb -3.80174 -796.844 0
684
root 5.28889 17.0601 1.90874 17.1221 -36.9529 3.52298
lfemur -39.7844 23.1184 2.51429
ltibia 108.331 0 0
lfoot 8.84779 -5.06931 0
ltoes 16.9293 0 0
rfemur -25.789 -8.98496 22.2147
rtibia 36.291 0 0
rfoot -9.05103 -2.54145 0
rtoes 3.72125 0 0
lowerback 0.783592 -5.82712 -1.21004
upperback -2.13024 -7.87945 -0.878501
thorax -2.52837 -3.91934 -0.0420849
lowerneck -8.38766 -4.01284 0.415218
upperneck 2.39359 -5.59844 3.87383
head 2.32096 -2.68642 0.943814
lclavicle -1.13178e-14 1.0367e-14 0
lhumerus 16.5518 -50.7351 46.6228
lradius 86.3972 0 0
lwrist 29.0544 0 0
lhand -16.6608 -3.45463 0
lfingers 7.12502 0 0
lthumb 9.56015 26.2496 0
rclavicle -1.13178e-14 1.0367e-14 0
rhumerus -48.837 -12.2235 -31.1132
rradius 80.8051 0 0
rwrist -13.9675 0 0
rhand -30.8832 -46.3451 0
rfingers 7.12502 0 0
rthumb -4.1699 -796.262 0
